<?xml version="1.0" encoding="iso-8859-1"?>
<!-- Generator: Adobe Illustrator 19.0.0, SVG Export Plug-In . SVG Version: 6.00 Build 0)  -->
<svg version="1.1" id="Capa_1" xmlns="http://www.w3.org/2000/svg" xmlns:xlink="http://www.w3.org/1999/xlink" x="0px" y="0px"
	 viewBox="0 0 512 512" style="enable-background:new 0 0 512 512;" xml:space="preserve">
<path style="fill:#939598;" d="M290.133,379.733v8.533h-68.267v-8.533H8.533v25.6c0,4.71,3.823,8.533,8.533,8.533h477.867
	c4.71,0,8.533-3.823,8.533-8.533v-25.6H290.133z"/>
<g>
	<rect x="221.867" y="379.733" style="fill:#F9F7E4;" width="68.267" height="8.533"/>
	<path style="fill:#F9F7E4;" d="M469.333,98.133H42.667c-9.429,0-17.067,7.637-17.067,17.067v264.533h460.8V115.2
		C486.4,105.771,478.763,98.133,469.333,98.133z M162.133,166.4v76.8h76.8c0,42.419-34.381,76.8-76.8,76.8s-76.8-34.381-76.8-76.8
		S119.714,166.4,162.133,166.4z M187.733,140.8c42.419,0,76.8,34.381,76.8,76.8h-76.8V140.8z"/>
</g>
<rect x="59.733" y="132.267" style="fill:#F7B1A2;" width="392.533" height="213.333"/>
<path style="fill:#FFDE17;" d="M85.333,243.2c0,42.419,34.381,76.8,76.8,76.8s76.8-34.381,76.8-76.8h-76.8v-76.8
	C119.714,166.4,85.333,200.781,85.333,243.2z"/>
<path style="fill:#85ECEB;" d="M187.733,140.8v76.8h76.8C264.533,175.181,230.153,140.8,187.733,140.8z"/>
<path d="M460.8,345.6V132.267c0-4.71-3.823-8.533-8.533-8.533h-204.8V140.8h196.267v196.267H68.267V140.8h93.867v-17.067h-102.4
	c-4.71,0-8.533,3.823-8.533,8.533V345.6c0,4.71,3.823,8.533,8.533,8.533h392.533C456.977,354.133,460.8,350.31,460.8,345.6z"/>
<path d="M503.467,371.2h-8.533v-256c0-14.14-11.46-25.6-25.6-25.6H42.667c-14.14,0-25.6,11.46-25.6,25.6v256H8.533
	c-4.71,0-8.533,3.823-8.533,8.533v25.6c0,9.429,7.637,17.067,17.067,17.067h477.867c9.429,0,17.067-7.637,17.067-17.067v-25.6
	C512,375.023,508.177,371.2,503.467,371.2z M34.133,115.2c0-4.71,3.823-8.533,8.533-8.533h426.667c4.71,0,8.533,3.823,8.533,8.533
	v256H34.133V115.2z M17.067,405.333v-17.067h196.267c0,4.71,3.823,8.533,8.533,8.533h68.267c4.71,0,8.533-3.823,8.533-8.533h196.267
	v17.067H17.067z"/>
<path d="M187.733,226.133h76.8c4.71,0,8.533-3.823,8.533-8.533c-0.051-47.104-38.229-85.282-85.333-85.333
	c-4.71,0-8.533,3.823-8.533,8.533v76.8C179.2,222.31,183.023,226.133,187.733,226.133z M196.267,149.862
	c30.916,3.951,55.253,28.288,59.204,59.204h-59.204V149.862z"/>
<path d="M76.8,243.2c0,47.13,38.204,85.333,85.333,85.333s85.333-38.204,85.333-85.333c0-4.71-3.823-8.533-8.533-8.533h-68.267
	V166.4c0-4.71-3.823-8.533-8.533-8.533C115.029,157.918,76.851,196.096,76.8,243.2z M229.871,251.733
	c-4.719,37.41-38.861,63.906-76.271,59.187c-37.41-4.719-63.906-38.861-59.187-76.271c3.9-30.933,28.262-55.287,59.187-59.187V243.2
	c0,4.71,3.823,8.533,8.533,8.533H229.871z"/>
<rect x="298.667" y="183.467" width="34.133" height="17.067"/>
<rect x="349.867" y="183.467" width="68.267" height="17.067"/>
<rect x="298.667" y="217.6" width="119.467" height="17.067"/>
<rect x="298.667" y="251.733" width="17.067" height="17.067"/>
<rect x="332.8" y="251.733" width="85.333" height="17.067"/>
<g>
</g>
<g>
</g>
<g>
</g>
<g>
</g>
<g>
</g>
<g>
</g>
<g>
</g>
<g>
</g>
<g>
</g>
<g>
</g>
<g>
</g>
<g>
</g>
<g>
</g>
<g>
</g>
<g>
</g>
</svg>
